<svg xmlns="http://www.w3.org/2000/svg" version="1.1" viewBox="360 413 1780 1675">
<path d="M0 0 C56.1 0 112.2 0 170 0 C170 379.5 170 759 170 1150 C113.9 1150 57.8 1150 0 1150 C0 770.5 0 391 0 0 Z " fill="#0B9A8E" transform="translate(633,938)"/>
<path d="M0 0 C56.1 0 112.2 0 170 0 C170 379.5 170 759 170 1150 C113.9 1150 57.8 1150 0 1150 C0 770.5 0 391 0 0 Z " fill="#0B9A8E" transform="translate(906,413)"/>
<path d="M0 0 C56.1 0 112.2 0 170 0 C170 283.14 170 566.28 170 858 C113.9 858 57.8 858 0 858 C0 574.86 0 291.72 0 0 Z " fill="#0B9A8E" transform="translate(1725,705)"/>
<path d="M0 0 C56.1 0 112.2 0 170 0 C170 206.25 170 412.5 170 625 C113.9 625 57.8 625 0 625 C0 418.75 0 212.5 0 0 Z " fill="#0B9A8E" transform="translate(1452,938)"/>
<path d="M0 0 C56.1 0 112.2 0 170 0 C170 206.25 170 412.5 170 625 C113.9 625 57.8 625 0 625 C0 418.75 0 212.5 0 0 Z " fill="#0B9A8E" transform="translate(1179,938)"/>
<path d="M0 0 C55.77 0 111.54 0 169 0 C169 206.25 169 412.5 169 625 C113.23 625 57.46 625 0 625 C0 418.75 0 212.5 0 0 Z " fill="#0B998E" transform="translate(360,938)"/>
<path d="M0 0 C56.1 0 112.2 0 170 0 C170 52.8 170 105.6 170 160 C113.9 160 57.8 160 0 160 C0 107.2 0 54.4 0 0 Z " fill="#0C9A8E" transform="translate(1452,705)"/>
<path d="M0 0 C56.1 0 112.2 0 170 0 C170 47.19 170 94.38 170 143 C113.9 143 57.8 143 0 143 C0 95.81 0 48.62 0 0 Z " fill="#0B9A8E" transform="translate(1970,938)"/>
<path d="M0 0 C0.33 0 0.66 0 1 0 C1 378.84 1 757.68 1 1148 C-54.77 1148 -110.54 1148 -168 1148 C-168 1146.35 -168 1144.7 -168 1143 C-167.34 1143.33 -166.68 1143.66 -166 1144 C-166 1144.99 -166 1145.98 -166 1147 C-155.09945241 1146.91570105 -144.19905282 1146.82085859 -133.29871655 1146.71247292 C-128.23750244 1146.66248067 -123.17630951 1146.6161509 -118.11499023 1146.578125 C-113.23252495 1146.54130918 -108.35023555 1146.49495936 -103.4679203 1146.44193649 C-101.60319408 1146.42337283 -99.73843013 1146.40827219 -97.87364769 1146.39665604 C-95.2660856 1146.37982728 -92.65892808 1146.35080068 -90.05151367 1146.31884766 C-89.27683746 1146.31668747 -88.50216125 1146.31452728 -87.70401001 1146.31230164 C-83.93864114 1146.25317396 -82.21147286 1146.14098191 -79 1144 C-76.73828125 1143.8046875 -76.73828125 1143.8046875 -74.3125 1143.875 C-73.50425781 1143.89304687 -72.69601562 1143.91109375 -71.86328125 1143.9296875 C-70.94095703 1143.96449219 -70.94095703 1143.96449219 -70 1144 C-70 1144.66 -70 1145.32 -70 1146 C-67.58354218 1146.16687448 -67.58354218 1146.16687448 -65 1146 C-64.34 1145.34 -63.68 1144.68 -63 1144 C-59.51633719 1144.33496758 -56.17236324 1144.96353855 -52.75 1145.6875 C-49.78672831 1146.32372412 -49.78672831 1146.32372412 -47 1144 C-40.93617021 1144.53191489 -40.93617021 1144.53191489 -38 1146 C-35.30106819 1146.08675538 -32.62830769 1146.11557897 -29.9296875 1146.09765625 C-29.13345978 1146.0962413 -28.33723206 1146.09482635 -27.51687622 1146.09336853 C-24.9695462 1146.08776345 -22.42230353 1146.07521014 -19.875 1146.0625 C-18.14974085 1146.05748565 -16.42448033 1146.05292263 -14.69921875 1146.04882812 C-10.46611209 1146.03779237 -6.23307086 1146.02052436 -2 1146 C-0.4736714 1142.94734281 -0.86112084 1139.76535084 -0.86938947 1136.41624153 C-0.8664307 1135.22076998 -0.8664307 1135.22076998 -0.86341216 1134.0011475 C-0.85795999 1131.29662707 -0.85970093 1128.59215717 -0.8613348 1125.88763237 C-0.85888978 1123.9342912 -0.85600664 1121.98095054 -0.85272202 1120.0276106 C-0.84490678 1114.61340926 -0.84337811 1109.19922094 -0.8427946 1103.78501465 C-0.84107339 1097.91245065 -0.83359251 1092.03989367 -0.82681805 1086.16733372 C-0.81573199 1075.8595961 -0.80834546 1065.55185988 -0.80341911 1055.24411774 C-0.79811182 1044.17958693 -0.79063732 1033.11506076 -0.78049088 1022.05053329 C-0.77953293 1021.00378874 -0.77953293 1021.00378874 -0.77855562 1019.93589782 C-0.7752894 1016.37790738 -0.77198765 1012.81991696 -0.76867336 1009.26192656 C-0.74473262 983.48275492 -0.72562975 957.70358149 -0.70907402 931.92440414 C-0.69265983 906.38761053 -0.67418649 880.85081976 -0.65294075 855.31402969 C-0.65228236 854.52152743 -0.65162396 853.72902517 -0.65094561 852.91250769 C-0.64493126 845.67442806 -0.63889146 838.43634845 -0.63282111 831.19826887 C-0.61772989 813.20364211 -0.60295802 795.20901509 -0.58840275 777.21438789 C-0.58773961 776.39487013 -0.58707647 775.57535237 -0.58639324 774.73100073 C-0.55414795 734.84719894 -0.52558152 694.96339462 -0.49731445 655.07958984 C-0.48750071 641.23563637 -0.47767072 627.39168291 -0.46777344 613.54772949 C-0.46715964 612.68914896 -0.46654584 611.83056843 -0.46591344 610.9459703 C-0.43736769 571.04729884 -0.40621185 531.14862953 -0.37438093 491.24996057 C-0.37231498 488.6603308 -0.37025016 486.07070104 -0.36818558 483.48107127 C-0.35450186 466.31974096 -0.34077313 449.1584107 -0.32701423 431.99708045 C-0.29963687 397.84906396 -0.2725241 363.70104727 -0.24559305 329.55303043 C-0.24431047 327.92674106 -0.2430277 326.30045169 -0.24174474 324.67416232 C-0.18397613 251.44407229 -0.12928592 178.21398008 -0.07592773 104.98388672 C-0.07542799 104.29805712 -0.07492825 103.61222752 -0.07441337 102.90561521 C-0.04942113 68.60374361 -0.02460447 34.30187188 0 0 Z " fill="#1A9282" transform="translate(801,940)"/>
<path d="M0 0 C55.77 0 111.54 0 169 0 C169 0.33 169 0.66 169 1 C113.56 1 58.12 1 1 1 C1.06291106 48.14969702 1.06291106 48.14969702 1.1268158 95.2993927 C1.12790299 96.09392547 1.12899019 96.88845824 1.13011033 97.70706776 C1.16671162 124.442587 1.20467668 151.17810413 1.2436676 177.91362 C1.24493928 178.78583336 1.24621096 179.65804673 1.24752118 180.55669081 C1.27516285 199.51033731 1.30302584 218.46398348 1.33111694 237.41762932 C1.34489063 246.71193186 1.3586154 256.00623446 1.37231445 265.30053711 C1.37367854 266.22545246 1.37504262 267.15036781 1.37644804 268.1033109 C1.42067212 298.10495821 1.4616628 328.10660889 1.50098413 358.108263 C1.54139488 388.92814798 1.58505286 419.74802668 1.63282111 450.56790117 C1.63956008 454.91683608 1.64626176 459.26577104 1.65294075 463.61470604 C1.65425648 464.47067392 1.65557221 465.3266418 1.6569278 466.2085481 C1.67804691 480.01039571 1.69572322 493.81224571 1.71212531 507.61409965 C1.72867128 521.47560517 1.74881271 535.33710173 1.77266841 549.19859663 C1.78674662 557.44300924 1.79802396 565.68741484 1.80536438 573.93183625 C1.81113602 580.07434613 1.82205185 586.21683644 1.8350333 592.35933509 C1.83948781 594.85465883 1.84223248 597.34998628 1.84316199 599.84531382 C1.84465967 603.21813761 1.85219253 606.5908937 1.8613348 609.96370411 C1.86031213 610.9489129 1.85928946 611.93412168 1.85823581 612.94918528 C1.86191652 613.84321241 1.86559723 614.73723954 1.86938947 615.6583584 C1.87048134 616.4303065 1.8715732 617.20225461 1.87269815 617.99759509 C1.92769012 620.20873722 1.92769012 620.20873722 3 623 C85.17 623.495 85.17 623.495 169 624 C169 624.33 169 624.66 169 625 C113.23 625 57.46 625 0 625 C0 418.75 0 212.5 0 0 Z " fill="#30988E" transform="translate(360,938)"/>
<path d="M0 0 C5.94 0 11.88 0 18 0 C18 0.33 18 0.66 18 1 C13.05 1 8.1 1 3 1 C2.07028557 3.78914328 1.8734694 5.45538201 1.86938947 8.33522958 C1.86570876 9.22782329 1.86202805 10.120417 1.85823581 11.040059 C1.85925847 12.02366344 1.86028114 13.00726788 1.8613348 14.02067852 C1.85849258 15.06755499 1.85565036 16.11443146 1.85272202 17.19303146 C1.84433377 20.73617324 1.84310358 24.2792825 1.84178162 27.82243347 C1.83721907 30.37415006 1.83221951 32.9258659 1.82681805 35.47758085 C1.81604436 41.04359454 1.80838285 46.60959936 1.80341911 52.17562103 C1.79602151 60.45214703 1.78294033 68.72865714 1.76867336 77.00517379 C1.74483848 90.92620162 1.72564455 104.84723227 1.70907402 118.76827049 C1.69264642 132.55655491 1.67416933 146.34483406 1.65294075 160.13311195 C1.65162314 160.98966804 1.65030554 161.84622414 1.648948 162.72873647 C1.64224614 167.0785574 1.63550752 171.42837827 1.62875474 175.77819911 C1.5809616 206.60692907 1.53778523 237.43566394 1.49731445 268.2644043 C1.45798132 298.2185095 1.41656287 328.17261062 1.37231445 358.12670898 C1.37095192 359.04964096 1.36958939 359.97257293 1.36818558 360.92347255 C1.35450048 370.1917349 1.34077292 379.45999718 1.32701423 388.72825943 C1.29898591 407.60963617 1.27124107 426.49101333 1.2436676 445.37239075 C1.2423994 446.24057103 1.2411312 447.10875132 1.23982458 448.00324009 C1.20095914 474.61984947 1.16329557 501.23646036 1.1268158 527.85307312 C1.1257794 528.60891091 1.12474301 529.3647487 1.12367522 530.14349067 C1.08170943 560.76232611 1.04101449 591.38116327 1 622 C56.11 622 111.22 622 168 622 C168 622.33 168 622.66 168 623 C112.56 623 57.12 623 0 623 C0 417.41 0 211.82 0 0 Z " fill="#169484" transform="translate(1453,939)"/>
<path d="M0 0 C0.99 0.495 0.99 0.495 2 1 C2 1.99 2 2.98 2 4 C12.90054759 3.91570105 23.80094718 3.82085859 34.70128345 3.71247292 C39.76249756 3.66248067 44.82369049 3.6161509 49.88500977 3.578125 C54.76747505 3.54130918 59.64976445 3.49495936 64.5320797 3.44193649 C66.39680592 3.42337283 68.26156987 3.40827219 70.12635231 3.39665604 C72.7339144 3.37982728 75.34107192 3.35080068 77.94848633 3.31884766 C79.11050064 3.31560738 79.11050064 3.31560738 80.29598999 3.31230164 C84.06135886 3.25317396 85.78852714 3.14098191 89 1 C91.26171875 0.8046875 91.26171875 0.8046875 93.6875 0.875 C94.89986328 0.90207031 94.89986328 0.90207031 96.13671875 0.9296875 C97.05904297 0.96449219 97.05904297 0.96449219 98 1 C98 1.66 98 2.32 98 3 C100.41645782 3.16687448 100.41645782 3.16687448 103 3 C103.66 2.34 104.32 1.68 105 1 C108.48366281 1.33496758 111.82763676 1.96353855 115.25 2.6875 C118.21327169 3.32372412 118.21327169 3.32372412 121 1 C127.06382979 1.53191489 127.06382979 1.53191489 130 3 C132.69893181 3.08675538 135.37169231 3.11557897 138.0703125 3.09765625 C138.86654022 3.0962413 139.66276794 3.09482635 140.48312378 3.09336853 C143.0304538 3.08776345 145.57769647 3.07521014 148.125 3.0625 C149.85025915 3.05748565 151.57551967 3.05292263 153.30078125 3.04882812 C157.53388791 3.03779237 161.76692914 3.02052436 166 3 C166.33 2.34 166.66 1.68 167 1 C167.66 1 168.32 1 169 1 C169 2.32 169 3.64 169 5 C113.23 5 57.46 5 0 5 C0 3.35 0 1.7 0 0 Z " fill="#2A8B81" transform="translate(633,2083)"/>
<path d="M0 0 C19.8 0 39.6 0 60 0 C60 0.33 60 0.66 60 1 C58.95430344 1.01213028 58.95430344 1.01213028 57.88748169 1.02450562 C51.32454698 1.10237717 44.76181282 1.18964489 38.19914436 1.28752708 C34.82502496 1.33751898 31.45093731 1.38384837 28.07666016 1.421875 C24.19935371 1.46737328 20.32240948 1.52539279 16.4453125 1.5859375 C14.6233989 1.60326431 14.6233989 1.60326431 12.76467896 1.62094116 C11.08316238 1.6507457 11.08316238 1.6507457 9.36767578 1.68115234 C7.88208664 1.70113785 7.88208664 1.70113785 6.3664856 1.7215271 C3.81264305 1.77427446 3.81264305 1.77427446 2 4 C1.68415905 6.79379803 1.68415905 6.79379803 1.7215271 10.12490845 C1.71036362 11.43185165 1.69920013 12.73879486 1.68769836 14.08534241 C1.68533316 15.54208345 1.68315755 16.99882482 1.68115234 18.45556641 C1.67185856 19.98294102 1.66169072 21.51031053 1.65071106 23.03767395 C1.62333487 27.19237083 1.60823919 31.34703368 1.59528303 35.5017972 C1.5796857 39.84070538 1.55288473 44.17954369 1.5272522 48.5184021 C1.48040405 56.7383553 1.44368923 64.95832155 1.41057932 73.17834032 C1.37240049 82.53496276 1.32297929 91.89151514 1.27259517 101.24807858 C1.16918558 120.49866782 1.07995463 139.74929978 1 159 C0.67 159 0.34 159 0 159 C0 106.53 0 54.06 0 0 Z " fill="#19948A" transform="translate(1453,706)"/>
<path d="M0 0 C0.33 0 0.66 0 1 0 C1 46.86 1 93.72 1 142 C-2.96 142 -6.92 142 -11 142 C-11 141.01 -11 140.02 -11 139 C-7.37 139 -3.74 139 0 139 C0 93.13 0 47.26 0 0 Z " fill="#218F86" transform="translate(2139,939)"/>
<path d="M0 0 C19.14 0 38.28 0 58 0 C58 0.33 58 0.66 58 1 C56.95763435 1.01213028 56.95763435 1.01213028 55.89421082 1.02450562 C49.34630457 1.10243657 42.79859775 1.18972253 36.25095654 1.28752708 C32.88471284 1.33747962 29.51850037 1.38380947 26.15209961 1.421875 C22.2822002 1.46742835 18.41265975 1.52543941 14.54296875 1.5859375 C13.33352097 1.59748871 12.12407318 1.60903992 10.87797546 1.62094116 C9.75703995 1.64081085 8.63610443 1.66068054 7.48120117 1.68115234 C6.49302902 1.69447601 5.50485687 1.70779968 4.48674011 1.7215271 C1.74981189 1.83553926 1.74981189 1.83553926 -1 4 C-0.67 2.68 -0.34 1.36 0 0 Z " fill="#0E9580" transform="translate(1455,706)"/>
<path d="M0 0 C0.66 0 1.32 0 2 0 C2 1.32 2 2.64 2 4 C-14.5 4 -31 4 -48 4 C-48 3.67 -48 3.34 -48 3 C-32.49 2.67 -16.98 2.34 -1 2 C-0.67 1.34 -0.34 0.68 0 0 Z " fill="#2D8A80" transform="translate(800,2084)"/>
<path d="M0 0 C3.96 0 7.92 0 12 0 C12 0.99 12 1.98 12 3 C8.04 3 4.08 3 0 3 C0 2.01 0 1.02 0 0 Z " fill="#229F97" transform="translate(2128,1078)"/>
<path d="M0 0 C0.80050781 0.03480469 1.60101562 0.06960937 2.42578125 0.10546875 C3.63814453 0.14607422 3.63814453 0.14607422 4.875 0.1875 C5.48988281 0.22230469 6.10476563 0.25710937 6.73828125 0.29296875 C6.73828125 0.95296875 6.73828125 1.61296875 6.73828125 2.29296875 C7.39828125 2.62296875 8.05828125 2.95296875 8.73828125 3.29296875 C4.11828125 3.29296875 -0.50171875 3.29296875 -5.26171875 3.29296875 C-2.26171875 0.29296875 -2.26171875 0.29296875 0 0 Z " fill="#1A9286" transform="translate(772.26171875,2083.70703125)"/>
<path d="M0 0 C0.80050781 0.03480469 1.60101562 0.06960937 2.42578125 0.10546875 C3.63814453 0.14607422 3.63814453 0.14607422 4.875 0.1875 C5.48988281 0.22230469 6.10476563 0.25710937 6.73828125 0.29296875 C6.73828125 0.95296875 6.73828125 1.61296875 6.73828125 2.29296875 C7.39828125 2.62296875 8.05828125 2.95296875 8.73828125 3.29296875 C4.11828125 3.29296875 -0.50171875 3.29296875 -5.26171875 3.29296875 C-2.26171875 0.29296875 -2.26171875 0.29296875 0 0 Z " fill="#1A9285" transform="translate(676.26171875,2083.70703125)"/>
<path d="M0 0 C1.81325551 0.11351517 3.62563357 0.24112961 5.4375 0.375 C6.95150391 0.47941406 6.95150391 0.47941406 8.49609375 0.5859375 C9.73552734 0.79089844 9.73552734 0.79089844 11 1 C11.33 1.66 11.66 2.32 12 3 C7.38 3 2.76 3 -2 3 C-1.34 2.01 -0.68 1.02 0 0 Z " fill="#1B9286" transform="translate(786,2084)"/>
<path d="M0 0 C6.33333333 0.33333333 6.33333333 0.33333333 9 3 C5.04 3 1.08 3 -3 3 C-2.01 2.01 -1.02 1.02 0 0 Z " fill="#1A9286" transform="translate(754,2084)"/>
<path d="M0 0 C6.33333333 0.33333333 6.33333333 0.33333333 9 3 C5.04 3 1.08 3 -3 3 C-2.01 2.01 -1.02 1.02 0 0 Z " fill="#1A9285" transform="translate(706,2084)"/>
<path d="M0 0 C6.33333333 0.33333333 6.33333333 0.33333333 9 3 C5.04 3 1.08 3 -3 3 C-2.01 2.01 -1.02 1.02 0 0 Z " fill="#1A9286" transform="translate(658,2084)"/>
<path d="M0 0 C6.75 0.75 6.75 0.75 9 3 C5.37 3 1.74 3 -2 3 C-1.34 2.01 -0.68 1.02 0 0 Z " fill="#1C9286" transform="translate(690,2084)"/>
<path d="M0 0 C6.75 0.75 6.75 0.75 9 3 C5.37 3 1.74 3 -2 3 C-1.34 2.01 -0.68 1.02 0 0 Z " fill="#1C9286" transform="translate(642,2084)"/>
<path d="M0 0 C6.75 0.75 6.75 0.75 9 3 C5.37 3 1.74 3 -2 3 C-1.34 2.01 -0.68 1.02 0 0 Z " fill="#1C9284" transform="translate(738,2084)"/>
</svg>