<svg xmlns="http://www.w3.org/2000/svg" version="1.2" viewBox="423.5 281.63 354.09 335.38"><style>.a{fill:#fefefe}.b{fill:#ec282b}.c{fill:#52575a}</style><path class="a" d="m634.5 558.6c8.3-15.2 12.6-32.3 12.6-49.6 0-59.6-50.1-107.9-111.8-107.9-14 0-27.8 2.5-40.9 7.5 1.3 10.9 3.7 21.6 7.1 32.1 8.7-3.4 17.9-5.1 27.3-5.1 39.7 0 71.9 30.8 71.9 68.7 0 14.1-4.5 27.8-12.8 39.2 14.8 7.1 30.5 12.2 46.6 15.1z"/><path class="b" d="m528.8 435.6c-9.4 0-18.6 1.7-27.3 5.1 11.7 36.6 34.9 68.4 66 90.8 6.5 4.5 13.3 8.6 20.4 12 8.3-11.4 12.8-25.1 12.8-39.2 0-37.9-32.2-68.7-71.9-68.7z"/><path class="b" d="m693.8 473c26.4-20.3 93.1-64.1 82.7-81.9-8.3-14.3-44.8 3-85.9 25.4-32.4 17.7-25.4-3.7-4.8-34.8 18.1-27.4 45.3-64.5 30.2-74.5-17.7-11.6-71.9 52.9-84.5 65.6-12.7 12.8-24.3 19.6-17.9-15.9 8.5-47.1 10.2-71.7-0.4-74.7-14.8-4.2-24 14.3-46.2 66.1-15.9 37.2-29.7 43.8-31.4 10.5-2.2-60-17.4-46.2-23.3-37-16 25.3-21.5 56-17.9 86.8 13.1-5 26.9-7.5 40.9-7.5 61.7 0 111.8 48.3 111.8 107.9 0 17.3-4.3 34.4-12.6 49.6 35.3 6.5 72.4 3.4 100.4-10.6 4.7-2.3 16-9.3 8.9-18.8-14-19.2-39.4-9.2-66.5-17-23.8-7-2.6-24.6 16.5-39.2z"/><path class="c" d="m587.9 543.5c-6.8 9.2-15.7 16.7-26 21.9-10.3 5.1-21.6 7.8-33.1 7.7-39.8 0-72-30.8-72-68.8 0-28.7 18.5-53.3 44.7-63.6-3.4-10.5-5.8-21.2-7.1-32.1-41.5 15.7-70.9 54.7-70.9 100.4 0 59.7 50 108 111.8 108 20.2 0.2 40.2-5.2 57.6-15.4 17.5-10.3 31.9-25.2 41.6-43-16.1-2.9-31.8-8-46.6-15.1z"/></svg>