<svg xmlns="http://www.w3.org/2000/svg" viewBox="0 0 1533.04 1559.06"><defs><style>.cls-1,.cls-2,.cls-3,.cls-4{fill-rule:evenodd;}.cls-2{fill:#e4232b;}.cls-3{fill:#fdee17;}.cls-4{fill:#f7ec13;}.cls-5{fill:#fff;}</style></defs><title>Logo Universitas Tadulako (Untad) Palu</title><g id="Layer_2" data-name="Layer 2"><g id="Layer_1-2" data-name="Layer 1"><path class="cls-1" d="M772.36,2.3c305,117.23,559.14,302.63,757.05,564.08l3.63,4.79-.27,6c-14.41,326.06-101.48,634.34-292.73,901.11l-3.29,4.59-5.39,1.64c-309.17,94.42-620.75,104.3-928.25-.15l-4.78-1.63-3.07-4C94.29,1217.36,11.35,903.19.2,577L0,571.17l3.51-4.7C201,302.53,453.23,120.17,760.41,2.29l6-2.29Z"/><path class="cls-2" d="M16.86,576.46c175.78-235,413-429.48,749.52-558.61,297.25,114.26,550.5,295.38,749.74,558.59-15.16,342.91-109.83,641.34-289.63,892.13-331.16,101.13-635.86,95.86-918,0C116.61,1219.05,28.4,914.18,16.86,576.46Z"/><path class="cls-1" d="M392.44,1182.39c60,17.75,127,7.55,174.61-34.51,40.07-39.39,39.75-92.15,27.19-143.79l-.23-.92-.11-.94a75.35,75.35,0,0,0-6.32-22.44c-19.76-42.77-85.32-67-126.63-80.95l-.37-.13-.36-.14C430.76,887,402,872.82,375.84,855.2l-.67.75c-29.93,33.68-67.67,61.53-114.57,61.32l-24.73-.11,19.92-14.66c31.14-22.91,55.73-51.58,61.58-90.83l1-6.64a236.88,236.88,0,0,1-32.53-48.11c-41.84-82.3-27.88-177.23,1.49-261,37-105.7,94.55-197.76,189.12-260.91l48.36-32.29-24.43,52.78c-17.71,38.26-35.43,76.21-49.58,116-15.87,44.59-26.61,89.7-31.05,136.87C417,566.67,419.16,665.82,472,704.22c16,11.59,34.61,16.28,54.11,16.77,18.79-.76,36.49-5.83,52.44-15.91,32.63-20.63,51.3-57.83,60.73-94.15,12.34-47.53,11.15-100.24,1.85-148.19-17.67-91.07-41.56-180.68-73.7-267.75l-4.56-12.36,11.1-7.09c57.58-36.8,123.59-53.38,191.45-55.6l.54,0,.53,0c67.87,2.22,133.88,18.8,191.45,55.6l11.11,7.09L964.5,195c-32.13,87.07-56,176.68-73.69,267.75-9.31,47.95-10.5,100.66,1.84,148.19,9.43,36.32,28.11,73.52,60.74,94.15,15.94,10.08,33.65,15.15,52.44,15.91,19.5-.49,38.15-5.18,54.11-16.77,52.86-38.4,55-137.55,52.26-195.89-4.44-47.17-15.18-92.28-31-136.87-14.15-39.79-31.87-77.74-49.59-116l-24.43-52.78L1055.51,235c94.56,63.15,152.08,155.21,189.12,260.91,29.37,83.81,43.32,178.74,1.49,261a236.81,236.81,0,0,1-31.61,47l1.15,7.71c5.86,39.25,30.45,67.92,61.59,90.83l19.92,14.66-24.74.11c-46.9.21-84.64-27.64-114.57-61.32l-1.07-1.21c-26.32,17.84-55.34,32.18-85,43.83l-.37.14-.36.13c-41.31,14-106.87,38.18-126.64,80.95a75,75,0,0,0-6.31,22.44l-.12.94-.22.92c-12.57,51.64-12.89,104.4,27.18,143.79,47.59,42.06,114.66,52.26,174.61,34.51,25.55-11.79,78.39-38.27,72-73.14-1.31-7.1-4.92-13.55-11.72-16.6-14.07-6.31-28.58,5.07-35.74,16.41-6.4,10.73-8,23.25-5.79,37.23-14.69-10.25-24.21-25.37-24.39-46.8,4.73-92,96.44-89.11,134.62-18.88l.41.76.33.8a96.32,96.32,0,0,1,7.25,32.13c1.49,29.8-11.15,58.29-30,80.78-22.37,26.63-53.4,45.87-85.62,58.25l-.25.09-.26.09c-63,21.83-141.67,12.83-207.56-3.41l-17,78.06-32.62-67.8-18.49,85.09L860.51,1254l-21.8,100.35-25.06-95-21.35,98.26-25.58-96.94-25.58,96.94-21.56-99.24-25.31,95.93-21.72-99.93-24,91-18.2-83.76-32,66.47-17.07-78.56c-66.3,16.55-145.95,26-209.6,3.91l-.26-.09-.25-.09c-32.23-12.38-63.26-31.62-85.62-58.25-18.89-22.49-31.54-51-30.05-80.78a96.82,96.82,0,0,1,7.25-32.13l.33-.8.42-.76c38.18-70.23,129.88-73.12,134.61,18.88-.57,20.73-10.83,37.89-24.39,46.53a64.39,64.39,0,0,0-5.79-37c-7.15-11.34-21.67-22.72-35.73-16.41-6.8,3-10.41,9.5-11.72,16.6C314.05,1144.12,366.9,1170.6,392.44,1182.39Z"/><path class="cls-3" d="M766,1208c-50.5.81-112.1,7-173.15,21.64-73,20-154.41,29.66-215.79,8.39-80.88-31.07-121.64-95.28-99.16-149.62,29.95-55.09,100-63.78,103.9,11.9-24.16-38.29-70.09-31.79-77.38,6-6.54,37.19,27.82,66.45,82.25,91.46,70.88,21.4,143.05,5.2,191.56-37.88,40.92-40,47.91-93.95,31.93-159.64-6.87-55.47-57.85-87.76-143.95-116.88-172.49-67.63-230.47-193.2-163.42-382C338.43,397,395,309,485.53,248.58c-34.11,73.69-72.26,153.16-82.1,258.6-6.55,136.8,27,228.12,122.83,230.18,110.7-4.07,157.89-137.84,131-277.74-8.19-41.73-17.61-83.34-28.6-124.8l5.28-69.7L667,319.47l-.89-54.08,21.38,44.92L698,250.51l18.67,54.66,13.8-60.07,18.4,57.09,16.51-63.31,18.94,60.33,17-54.92,16.24,60.61,15.83-54L846,307.06l19.62-42.21,2,54L898,263.36l7.71,62.7c-12,44.36-22.18,88.89-30.94,133.56-27,139.9,20.24,273.67,131,277.74,95.82-2.06,129.38-93.38,122.83-230.18-9.85-105.44-48-184.91-82.11-258.6,90.5,60.43,147.1,148.45,182.77,252.71,67,188.85,9.07,314.42-163.43,382.05-86.09,29.12-137.07,61.41-143.94,116.88-16,65.69-9,119.65,31.93,159.64,48.51,43.08,120.67,59.28,191.56,37.88,54.43-25,88.78-54.27,82.25-91.46-7.3-37.74-53.23-44.24-77.38-6,3.88-75.68,73.94-67,103.89-11.9,22.48,54.34-18.28,118.55-99.16,149.62-61.38,21.27-142.76,11.65-215.78-8.39C878.07,1215,816.47,1208.83,766,1208ZM623.42,315.67l4.79-79.77,31.12,55.47-.54-69.54L684,282.44l11.63-70.08,19.21,58.72,15.7-61.69,17.85,61.69,17.86-64.67,18.4,63.31,17.86-60.88L816,271.35l20.56-58.72L848.19,280l26.51-59.25-.81,70.62L903.65,234l5.94,77.87c11.48-41,24.55-81.88,39.56-122.56-48.92-31.26-109.72-50.63-183.17-53-73.45,2.4-134.26,21.77-183.18,53C598.28,231.26,611.69,273.38,623.42,315.67Z"/><path class="cls-1" d="M766.18,558.59,929.67,830.43,766.17,1095,601.6,830.43,766.18,558.59ZM766.12,595,623.67,830.3l142.45,229,141.51-229Z"/><path class="cls-1" d="M766,661.52,867.39,830.06,766,994.12,664,830.06,766,661.52Zm0,31.67-82.8,136.75L766,963.06l82.25-133.12Z"/><path class="cls-1" d="M767.14,797.21c21.87,0,39.59,17,39.59,38s-17.72,38-39.59,38-39.58-17-39.58-38,17.72-38,39.58-38Zm0,10.63c-16,0-28.95,12.24-28.95,27.33s13,27.33,28.95,27.33,29-12.23,29-27.33S783.13,807.84,767.14,807.84Z"/><path class="cls-4" d="M325.46,812.88c-6,40.17-30.33,70.83-64.82,96.21,34.81.15,70.73-16.16,108.42-58.58h0a292.1,292.1,0,0,1-43.59-37.63Z"/><path class="cls-4" d="M1207.57,812.88c6,40.17,30.33,70.83,64.83,96.21-34.81.15-70.73-16.16-108.42-58.58h0a292.1,292.1,0,0,0,43.59-37.63Z"/><path class="cls-4" d="M911.64,1240.31l18.22,37.88,7-32.19-1.8-.49q-11.62-2.77-23.42-5.2ZM872,1233.25l11.15,42.24,8.48-39q-9.78-1.74-19.63-3.22Zm-49.85-5.94,15.07,57.1,11.8-54.3q-13.43-1.62-26.87-2.8Zm-17.94-1.21-.37-.18q-14.61-.95-29.12-1.34l-.53.14,16.62,63,13.4-61.62Zm-74.87,0,.59-.29q14.42-.9,28.75-1.27l.68.18-16.63,63-13.39-61.62Zm-18.39,1.12-15.09,57.19L684,1230q13.44-1.62,26.92-2.77Zm-49.62,5.83-11.2,42.44-8.52-39.23q9.83-1.73,19.72-3.21Zm-38.58,6.77-18.46,38.37-7.11-32.73Q609.81,1242.43,622.7,1239.82Z"/><path class="cls-1" d="M449.86,929.55c29.45,30.59,61.65,60,97.11,83.54l5.19,3.44-1.93,5.92c-9,27.54-25.35,49.56-53.18,59.55l-7,2.52-3.15-6.77c-19.55-42.07-50.37-72.7-92.37-92.37l-13.84-6.48L393.73,971c17.35-10.52,32-23.42,43.45-40.33l5.66-8.39Z"/><path class="cls-4" d="M444,935.22c32,33.24,64.69,62.28,98.49,84.69-9.61,29.5-26.28,46.54-48.16,54.39Q463.86,1008.81,398,978C415.57,967.3,431.41,953.84,444,935.22Z"/><path class="cls-1" d="M1084.39,929.55c-29.46,30.59-61.66,60-97.12,83.54l-5.18,3.44,1.92,5.92c9,27.54,25.35,49.56,53.18,59.55l7,2.52,3.15-6.77c19.56-42.07,50.38-72.7,92.38-92.37l13.84-6.48L1140.52,971c-17.36-10.52-32-23.42-43.46-40.33l-5.65-8.39Z"/><path class="cls-4" d="M1090.28,935.22c-32,33.24-64.69,62.28-98.49,84.69,9.61,29.5,26.29,46.54,48.16,54.39q30.43-65.49,96.33-96.32C1118.67,967.3,1102.84,953.84,1090.28,935.22Z"/><path class="cls-5" d="M300.33,1263.2c3.75,3.34,5.64,5,9.44,8.24l-19.25,21.8a48.92,48.92,0,0,0-5.56,7,8.4,8.4,0,0,0-.4,6.61c.75,2.38,2.57,4.77,5.43,7.14s5.52,3.7,7.81,3.94a7.5,7.5,0,0,0,5.62-1.43,50.57,50.57,0,0,0,6.23-6.69l18.84-22.94c3.88,3.1,5.83,4.62,9.76,7.64-7,8.84-10.49,13.26-17.47,22.1q-6,7.57-9.31,10.06a14.29,14.29,0,0,1-7.33,2.85,20.49,20.49,0,0,1-8.86-1.42,39.45,39.45,0,0,1-11-6.8c-4.91-4-8.21-7.64-9.92-10.67a20,20,0,0,1-2.82-8.54,13.55,13.55,0,0,1,1.19-6.89c1.41-2.85,4.17-6.48,8.23-10.91Z"/><path class="cls-5" d="M316.32,1345.16l32.44-42.7c3.86,2.85,5.81,4.25,9.71,7-.33,17.33-.24,26.07.46,43.66,8-11.85,12-17.78,20.06-29.63,3.8,2.5,5.71,3.72,9.54,6.15l-29.28,44.87c-4.47-2.83-6.69-4.27-11.12-7.19-.95-17.36-1.18-26-1.13-43.14-8.27,11.28-12.41,16.92-20.67,28.2C322.31,1349.55,320.3,1348.1,316.32,1345.16Z"/><path class="cls-5" d="M370.72,1381.66c11.38-18.16,17.07-27.23,28.44-45.39,4.16,2.53,6.25,3.77,10.45,6.22L382,1388.37C377.46,1385.73,375.21,1384.39,370.72,1381.66Z"/><path class="cls-5" d="M407.3,1402.48c2.15-23.1,3.55-34.57,7-57.28,4.57,2.62,6.87,3.91,11.47,6.43-2.47,16.71-3.54,25.12-5.34,42,13-11.11,19.34-16.78,31.76-28.32,4.59,2.26,6.89,3.36,11.51,5.53-17.06,15.63-25.87,23.25-44,38C414.69,1406.38,412.22,1405.1,407.3,1402.48Z"/><path class="cls-5" d="M446.36,1421.79c9.15-19.33,13.73-29,22.89-48.33,16,7.34,24.16,10.75,40.55,17-1.33,3.36-2,5-3.33,8.4-12.09-4.62-18.09-7.07-30-12.27l-4.88,10.8c11.27,4.92,16.94,7.26,28.38,11.67l-3.35,8.36c-11.57-4.47-17.33-6.84-28.74-11.82l-6,13.26c13,5.67,19.51,8.33,32.68,13.34l-3.3,8.38C473.11,1433.68,464.12,1429.93,446.36,1421.79Z"/><path class="cls-5" d="M501.55,1444.41c7.54-20,11.3-30,18.84-50,9.44,3.43,14.18,5.06,23.72,8.13,6,1.93,10.23,3.71,12.68,5.45a13.49,13.49,0,0,1,5.1,6.84,14.29,14.29,0,0,1,.1,8.78,13.26,13.26,0,0,1-6.71,8.39c-3.34,1.75-7.71,2.17-13.08,1.22a29.67,29.67,0,0,1,5,6.22,66.16,66.16,0,0,1,4.32,10.31c1.73,4.83,2.63,7.25,4.45,12.08-5.9-1.64-8.85-2.49-14.72-4.25-2.17-5.51-3.22-8.26-5.27-13.78a86.43,86.43,0,0,0-3.84-9.46,9.75,9.75,0,0,0-2.85-3.27,24.31,24.31,0,0,0-5.75-2.56l-2.39-.82c-3,8.4-4.5,12.6-7.49,21C508.82,1447,506.39,1446.17,501.55,1444.41ZM524,1419.66c3.45,1.19,5.18,1.77,8.63,2.9,5.61,1.85,9.2,2.74,10.73,2.76a6.57,6.57,0,0,0,4-1.14,6.34,6.34,0,0,0,2.4-3.45,6,6,0,0,0-.22-4.62,7.65,7.65,0,0,0-3.7-3.35c-.88-.41-3.68-1.34-8.33-2.86-3.58-1.18-5.36-1.78-8.93-3Z"/><path class="cls-5" d="M564.3,1446.1c4.81.89,7.21,1.31,12,2.12-.19,3.58.59,6.45,2.37,8.59s4.55,3.67,8.29,4.55c4,.93,7.13.88,9.47-.1s3.72-2.44,4.16-4.36a4.42,4.42,0,0,0-.55-3.41,10.4,10.4,0,0,0-3.84-3.22c-1.31-.75-4.37-2.24-9.12-4.52-6.1-2.94-10.14-5.8-12.17-8.49-2.85-3.78-3.66-7.71-2.52-11.78a12.94,12.94,0,0,1,4.54-6.68,16.46,16.46,0,0,1,8.55-3.36,33.65,33.65,0,0,1,11.69,1c7.16,1.69,12.22,4.28,15.25,7.92a15,15,0,0,1,3.34,12.69c-4.79-.78-7.18-1.18-12-2a8.78,8.78,0,0,0-1.9-6.48c-1.37-1.54-3.7-2.69-7-3.47a15.44,15.44,0,0,0-8.44-.06,3.82,3.82,0,0,0-1.76,6.31c1.2,1.48,4.51,3.54,10,6.08a71.43,71.43,0,0,1,12,6.61,16.74,16.74,0,0,1,5.44,6.67,14.24,14.24,0,0,1,.65,8.79,14.08,14.08,0,0,1-4.68,7.82,17.48,17.48,0,0,1-9.59,4.07,39.88,39.88,0,0,1-13.89-1.14c-7.81-1.83-13.39-4.87-16.71-9S563.45,1452.06,564.3,1446.1Z"/><path class="cls-5" d="M619.85,1476.58c4-20.95,6.09-31.42,10.15-52.36,4.65.86,7,1.27,11.64,2-3.69,21-5.54,31.52-9.23,52.52C627.38,1478,624.87,1477.51,619.85,1476.58Z"/><path class="cls-5" d="M658.49,1482.69c2.43-17.55,3.65-26.33,6.08-43.87-7-.92-10.46-1.42-17.42-2.52.59-3.55.88-5.33,1.47-8.89,18.38,2.88,27.62,4,46.12,5.66l-.85,9c-7-.62-10.47-1-17.45-1.76l-5.3,44C666.07,1483.66,663.55,1483.35,658.49,1482.69Z"/><path class="cls-5" d="M748.16,1489c-5.54,0-8.31-.11-13.84-.27-2-4.91-3-7.36-5-12.27-9.91-.37-14.86-.63-24.75-1.32-2.4,4.68-3.62,7-6.09,11.68-5.39-.41-8.08-.64-13.46-1.16,11.93-20.28,17.54-30.54,28-51.23,5,.31,7.47.44,12.46.66C733.83,1456.82,738.36,1467.61,748.16,1489Zm-22.45-21.67c-3-8-4.46-12.08-7.28-20.14-3.67,7.72-5.55,11.57-9.4,19.25C715.7,1466.9,719,1467.08,725.71,1467.36Z"/><path class="cls-5" d="M751.84,1471.73c4.83-.38,7.25-.59,12.07-1q1.14,5.27,4.53,7.68c2.27,1.62,5.34,2.38,9.16,2.27,4-.12,7.07-1,9.06-2.52s2.93-3.31,2.85-5.26a4.48,4.48,0,0,0-1.42-3.16,10.66,10.66,0,0,0-4.54-2.13c-1.46-.38-4.79-1-9.95-2-6.62-1.27-11.25-3-13.9-5.07-3.73-2.92-5.54-6.5-5.52-10.72a13,13,0,0,1,2.6-7.61,16.28,16.28,0,0,1,7.31-5.44,33.46,33.46,0,0,1,11.46-2.07c7.32-.21,12.87,1,16.74,3.74a15.12,15.12,0,0,1,6.55,11.39c-4.8.47-7.21.69-12,1.09a8.93,8.93,0,0,0-3.54-5.77c-1.73-1.13-4.26-1.64-7.62-1.55s-6.16.79-8.11,2.1a3.8,3.8,0,0,0-1.86,3.34,3.89,3.89,0,0,0,1.83,3.21c1.54,1.11,5.26,2.24,11.2,3.29a72.79,72.79,0,0,1,13.28,3.3,16.73,16.73,0,0,1,7,5,14.41,14.41,0,0,1,3,8.32,14,14,0,0,1-2.45,8.74,17.09,17.09,0,0,1-8.14,6.37,39.22,39.22,0,0,1-13.63,2.46c-8,.23-14.14-1.27-18.39-4.37S752.6,1477.69,751.84,1471.73Z"/><path class="cls-5" d="M852.05,1482.94c-2.29-17.55-3.44-26.33-5.73-43.89-7,.9-10.47,1.31-17.46,2-.37-3.59-.56-5.38-.94-9,18.48-1.9,27.7-3.17,46-6.31.61,3.55.93,5.32,1.55,8.88-6.92,1.18-10.39,1.73-17.34,2.75l6.5,43.78C859.63,1482,857.11,1482.29,852.05,1482.94Z"/><path class="cls-5" d="M940.55,1466.1c-5.39,1.37-8.1,2-13.51,3.29-3.28-4.2-4.9-6.31-8.11-10.55-9.7,2.19-14.57,3.21-24.33,5.07-1.09,5.13-1.65,7.7-2.81,12.84-5.33,1-8,1.43-13.33,2.32,6.17-22.62,8.89-34,13.6-56.62,4.9-1,7.35-1.49,12.24-2.55C918.11,1438.7,925.36,1448,940.55,1466.1ZM913,1451c-5-7-7.52-10.51-12.39-17.57-1.51,8.39-2.31,12.59-4,21C903.2,1453.08,906.48,1452.4,913,1451Z"/><path class="cls-5" d="M933.2,1413c8.38-2.2,12.56-3.37,20.88-5.84a50,50,0,0,1,11-2.3,20.92,20.92,0,0,1,10,1.93,24,24,0,0,1,8.21,6.36,35.62,35.62,0,0,1,6,11.27,30,30,0,0,1,1.94,11.32,22.34,22.34,0,0,1-3.32,11,23,23,0,0,1-7.22,6.79,42.73,42.73,0,0,1-10.5,4.39c-9.24,2.76-13.88,4.06-23.19,6.51Zm13.94,5.55,9.8,33.93c3.63-1,5.44-1.55,9.07-2.62a38.75,38.75,0,0,0,7.17-2.69,12.21,12.21,0,0,0,4.2-3.63,10.8,10.8,0,0,0,1.55-5.89,30,30,0,0,0-1.85-9.66,28.71,28.71,0,0,0-4.14-8.64,11.34,11.34,0,0,0-11-4.61,67.23,67.23,0,0,0-9.62,2.33C950.26,1417.62,949.22,1417.92,947.14,1418.5Z"/><path class="cls-5" d="M989.85,1395.42c4.49-1.6,6.73-2.43,11.18-4.11,4.18,10.78,6.26,16.17,10.43,27a50.34,50.34,0,0,0,3.66,8.14,8.56,8.56,0,0,0,5.52,3.53c2.39.49,5.25.09,8.56-1.22s5.64-2.94,6.86-4.79a7.16,7.16,0,0,0,1.25-5.49,52.85,52.85,0,0,0-3-8.55l-11.6-27.15c4.41-1.83,6.61-2.77,11-4.69l11.47,25.58q3.93,8.78,4.61,12.8a13.81,13.81,0,0,1-.79,7.64,19,19,0,0,1-5.16,6.91,36.89,36.89,0,0,1-10.75,6.13c-5.67,2.25-10.21,3.34-13.57,3.35a19.47,19.47,0,0,1-8.59-1.71,13.71,13.71,0,0,1-5.41-4.33c-1.83-2.57-3.77-6.68-5.82-12.29Z"/><path class="cls-5" d="M1068.25,1421l-22.59-47.87c4.36-2,6.54-3,10.87-5.12l19.45,39.42c11.47-5.51,17.16-8.4,28.43-14.44l4.33,7.88C1092.75,1409.47,1084.64,1413.49,1068.25,1421Z"/><path class="cls-5" d="M1166.89,1366.19c-4.78,3.16-7.18,4.71-12,7.77-4.56-2.86-6.83-4.3-11.34-7.22-8.67,5.4-13,8-21.85,13.08.65,5.23,1,7.84,1.53,13.09-4.81,2.72-7.23,4.06-12.09,6.69-1.53-23.46-2.66-35.1-5.61-58.14,4.42-2.59,6.62-3.91,11-6.58C1136.1,1348,1146.18,1354.24,1166.89,1366.19Zm-31.66-4.89c-7.19-4.89-10.75-7.38-17.79-12.41,1.31,8.46,1.93,12.7,3.06,21.22C1126.42,1366.66,1129.37,1364.9,1135.23,1361.3Z"/><path class="cls-5" d="M1172.84,1362.21l-30.45-44c4-2.73,6.06-4.12,10.07-6.93l13.87,19.28c2.83-13.59,4.06-20.37,6.15-33.87,5.28-4,7.9-6,13.1-10.17-1.93,12.2-3,18.32-5.58,30.58,15.92,4.45,24,6.47,40.51,10-5.39,4.31-8.11,6.42-13.58,10.59-11.94-3.53-17.84-5.42-29.46-9.41-1.23,5.31-1.87,8-3.21,13.26l9.45,13.12C1179.38,1357.78,1177.21,1359.27,1172.84,1362.21Z"/><path class="cls-5" d="M1206.89,1304.21a29.76,29.76,0,0,1-6.55-12.37,25.72,25.72,0,0,1-.26-9.28,25.12,25.12,0,0,1,3-8.79,40.64,40.64,0,0,1,8.64-10.27c6.81-6,13.83-9.16,21.28-9.44s14.28,2.57,20.43,8.77,8.81,13,8,20.46-5,14.64-12.31,21.12-15.07,9.8-22.65,9.77S1212.34,1310.77,1206.89,1304.21Zm10-8.71c4,4.59,8.26,7,12.91,7.13a18.35,18.35,0,0,0,13-5c4-3.51,6.16-7.58,6.53-12.12s-1.62-9.07-5.91-13.56-8.58-6.66-13-6.72-8.53,1.64-12.43,5.08-6,7.3-6.47,11.67S1212.88,1290.83,1216.9,1295.5Z"/></g></g></svg>